/* XPM */
static char * wall_xpm[] = {
"50 50 542 2",
"  	c #763E03",
". 	c #995001",
"+ 	c #985101",
"@ 	c #854602",
"# 	c #7F4403",
"$ 	c #985001",
"% 	c #793F02",
"& 	c #914D03",
"* 	c #995101",
"= 	c #703A02",
"- 	c #975002",
"; 	c #6F3903",
"> 	c #9C5302",
", 	c #974F01",
"' 	c #6E3903",
") 	c #9A5202",
"! 	c #954E02",
"~ 	c #934D01",
"{ 	c #CC7107",
"] 	c #BD6803",
"^ 	c #BC6703",
"/ 	c #BD6703",
"( 	c #BC6804",
"_ 	c #A35907",
": 	c #A45702",
"< 	c #C76E05",
"[ 	c #BC6704",
"} 	c #BC6803",
"| 	c #C26B05",
"1 	c #894A05",
"2 	c #BF6603",
"3 	c #562C04",
"4 	c #C46B04",
"5 	c #BB6706",
"6 	c #CC6F04",
"7 	c #AE6006",
"8 	c #7D4102",
"9 	c #C86E05",
"0 	c #A15905",
"a 	c #924C01",
"b 	c #A35700",
"c 	c #A05706",
"d 	c #A45803",
"e 	c #B56203",
"f 	c #AC5D01",
"g 	c #894A06",
"h 	c #BE6603",
"i 	c #B46202",
"j 	c #BF6803",
"k 	c #AC5E03",
"l 	c #703A03",
"m 	c #C36903",
"n 	c #A45A04",
"o 	c #BB6602",
"p 	c #9B5505",
"q 	c #864602",
"r 	c #AB5F06",
"s 	c #A15804",
"t 	c #8B4B05",
"u 	c #904C03",
"v 	c #A85D05",
"w 	c #A45A05",
"x 	c #774005",
"y 	c #A75A03",
"z 	c #A15805",
"A 	c #532B04",
"B 	c #AD5E04",
"C 	c #9F5805",
"D 	c #6C3803",
"E 	c #AE5F04",
"F 	c #965205",
"G 	c #783F03",
"H 	c #A95D05",
"I 	c #8D4D05",
"J 	c #7C4002",
"K 	c #804302",
"L 	c #6E3902",
"M 	c #784002",
"N 	c #7F4202",
"O 	c #7E4102",
"P 	c #693602",
"Q 	c #7E4303",
"R 	c #7E4202",
"S 	c #7F4302",
"T 	c #633303",
"U 	c #824503",
"V 	c #5D3104",
"W 	c #7C4102",
"X 	c #673603",
"Y 	c #753C02",
"Z 	c #6C3903",
"` 	c #BD6603",
" .	c #BD6702",
"..	c #C16A04",
"+.	c #C06804",
"@.	c #C66D03",
"#.	c #623304",
"$.	c #C56B03",
"%.	c #BE6602",
"&.	c #BE6704",
"*.	c #683603",
"=.	c #CF7204",
"-.	c #C36B05",
";.	c #6B3602",
">.	c #D07205",
",.	c #A75C05",
"'.	c #944E01",
").	c #CA7006",
"!.	c #BD6602",
"~.	c #A45906",
"{.	c #A65903",
"].	c #C66D04",
"^.	c #613203",
"/.	c #C96E04",
"(.	c #B66305",
"_.	c #6A3602",
":.	c #C76D04",
"<.	c #924D01",
"[.	c #BC6805",
"}.	c #A45703",
"|.	c #B56202",
"1.	c #AA5E03",
"2.	c #AA5E04",
"3.	c #AF6104",
"4.	c #804505",
"5.	c #B26003",
"6.	c #AA5D03",
"7.	c #B46404",
"8.	c #552C04",
"9.	c #B96503",
"0.	c #AB5E05",
"a.	c #C26A05",
"b.	c #B16206",
"c.	c #BE6805",
"d.	c #965305",
"e.	c #8D4B01",
"f.	c #B96706",
"g.	c #985206",
"h.	c #9B5303",
"i.	c #B56405",
"j.	c #633403",
"k.	c #743D02",
"l.	c #6C3802",
"m.	c #673503",
"n.	c #6E3A02",
"o.	c #673602",
"p.	c #703B03",
"q.	c #763F03",
"r.	c #623402",
"s.	c #733E03",
"t.	c #733D02",
"u.	c #6E3901",
"v.	c #753E02",
"w.	c #633503",
"x.	c #713B02",
"y.	c #723B02",
"z.	c #995102",
"A.	c #CE7105",
"B.	c #C66C03",
"C.	c #AA5C05",
"D.	c #A95A04",
"E.	c #CB7004",
"F.	c #955005",
"G.	c #C16804",
"H.	c #C56C03",
"I.	c #CB6F04",
"J.	c #763E04",
"K.	c #C56B05",
"L.	c #D07104",
"M.	c #BC6605",
"N.	c #874703",
"O.	c #CE7004",
"P.	c #B36205",
"Q.	c #BD6804",
"R.	c #AD5E03",
"S.	c #C36A03",
"T.	c #7E4002",
"U.	c #954E01",
"V.	c #C66E06",
"W.	c #A25806",
"X.	c #C06A05",
"Y.	c #B36202",
"Z.	c #B46102",
"`.	c #BA6604",
" +	c #C16803",
".+	c #C16903",
"++	c #C26A03",
"@+	c #B66405",
"#+	c #AB5E06",
"$+	c #9F5705",
"%+	c #432102",
"&+	c #442203",
"*+	c #442303",
"=+	c #3E1F03",
"-+	c #402003",
";+	c #3A1D03",
">+	c #4D2602",
",+	c #361A02",
"'+	c #4F2803",
")+	c #3D1E03",
"!+	c #4A2503",
"~+	c #452303",
"{+	c #432204",
"]+	c #CE7003",
"^+	c #D07103",
"/+	c #9A5204",
"(+	c #C26A04",
"_+	c #D17204",
":+	c #814504",
"<+	c #CC6F05",
"[+	c #CF7003",
"}+	c #CF7103",
"|+	c #CC6E03",
"1+	c #804404",
"2+	c #D57505",
"3+	c #D57404",
"4+	c #BD6704",
"5+	c #9C5403",
"6+	c #D27304",
"7+	c #AF5E04",
"8+	c #AA5C04",
"9+	c #D17203",
"0+	c #AC5D02",
"a+	c #BE6503",
"b+	c #C86E03",
"c+	c #914C01",
"d+	c #B46203",
"e+	c #884A05",
"f+	c #BB6603",
"g+	c #B26104",
"h+	c #BA6606",
"i+	c #CA6E04",
"j+	c #9D5605",
"k+	c #A15706",
"l+	c #BC6604",
"m+	c #834805",
"n+	c #834705",
"o+	c #844805",
"p+	c #572D04",
"q+	c #723C03",
"r+	c #7E4204",
"s+	c #7B4305",
"t+	c #482403",
"u+	c #824505",
"v+	c #7C4305",
"w+	c #4C2702",
"x+	c #7F4405",
"y+	c #844705",
"z+	c #6A3904",
"A+	c #5F2F02",
"B+	c #653504",
"C+	c #643403",
"D+	c #8F4D03",
"E+	c #A15503",
"F+	c #9B5404",
"G+	c #8E4B03",
"H+	c #B16003",
"I+	c #7D4103",
"J+	c #BA6504",
"K+	c #BF6703",
"L+	c #814303",
"M+	c #C46A04",
"N+	c #B86303",
"O+	c #814403",
"P+	c #B05F03",
"Q+	c #894905",
"R+	c #9B5504",
"S+	c #A45802",
"T+	c #6F3A02",
"U+	c #C36902",
"V+	c #BA6602",
"W+	c #713A02",
"X+	c #9F5807",
"Y+	c #9C5506",
"Z+	c #9C5606",
"`+	c #794205",
" @	c #7A4003",
".@	c #9E5707",
"+@	c #9D5606",
"@@	c #653604",
"#@	c #8E4B04",
"$@	c #9E5706",
"%@	c #4A2603",
"&@	c #975105",
"*@	c #955106",
"=@	c #5B2F03",
"-@	c #9C5505",
";@	c #8A4B06",
">@	c #673403",
",@	c #7E4405",
"'@	c #AA5B03",
")@	c #7B4102",
"!@	c #9C5304",
"~@	c #AA5A03",
"{@	c #6D3903",
"]@	c #A35804",
"^@	c #AA5B02",
"/@	c #A85903",
"(@	c #6A3703",
"_@	c #AB5C04",
":@	c #A75903",
"<@	c #603203",
"[@	c #AB5B03",
"}@	c #9C5303",
"|@	c #8C4B03",
"1@	c #BB6604",
"2@	c #B56303",
"3@	c #B46303",
"4@	c #CC7105",
"5@	c #BE6806",
"6@	c #6A3702",
"7@	c #CD7005",
"8@	c #B46302",
"9@	c #C76E06",
"0@	c #A25807",
"a@	c #A65B06",
"b@	c #A85C06",
"c@	c #713D05",
"d@	c #9B5304",
"e@	c #A65C06",
"f@	c #AA5E06",
"g@	c #532A04",
"h@	c #A65905",
"i@	c #9F5806",
"j@	c #AD5F07",
"k@	c #A25906",
"l@	c #633302",
"m@	c #A95D06",
"n@	c #AB5F07",
"o@	c #864806",
"p@	c #884804",
"q@	c #AB5D06",
"r@	c #693703",
"s@	c #894802",
"t@	c #894701",
"u@	c #894702",
"v@	c #763D02",
"w@	c #713C03",
"x@	c #613102",
"y@	c #874803",
"z@	c #894801",
"A@	c #633203",
"B@	c #5F3203",
"C@	c #8B4902",
"D@	c #844502",
"E@	c #CE7206",
"F@	c #A45A06",
"G@	c #A55803",
"H@	c #CB7005",
"I@	c #C66C04",
"J@	c #894B05",
"K@	c #CA7005",
"L@	c #5C2F04",
"M@	c #BF6905",
"N@	c #733C03",
"O@	c #CC7005",
"P@	c #A55B06",
"Q@	c #944D01",
"R@	c #C46A03",
"S@	c #8D4A02",
"T@	c #B96606",
"U@	c #B06004",
"V@	c #B06005",
"W@	c #925006",
"X@	c #975003",
"Y@	c #B76506",
"Z@	c #B05F04",
"`@	c #BA6605",
" #	c #A05806",
".#	c #945105",
"+#	c #673502",
"@#	c #6B3702",
"##	c #5D3003",
"$#	c #653403",
"%#	c #592C02",
"&#	c #6A3803",
"*#	c #683602",
"=#	c #532A03",
"-#	c #4F2903",
";#	c #572D03",
">#	c #6B3703",
",#	c #613202",
"'#	c #C56C04",
")#	c #C06703",
"!#	c #D17305",
"~#	c #C46C04",
"{#	c #D37405",
"]#	c #CF7307",
"^#	c #A55A07",
"/#	c #A35701",
"(#	c #C86E04",
"_#	c #B66304",
":#	c #C86D04",
"<#	c #AB5D03",
"[#	c #814505",
"}#	c #542C04",
"|#	c #B96504",
"1#	c #AB5D04",
"2#	c #C16A05",
"3#	c #B16106",
"4#	c #8E4A01",
"5#	c #AB5E03",
"6#	c #975206",
"7#	c #9B5203",
"8#	c #B56404",
"9#	c #5D3103",
"0#	c #713A03",
"a#	c #6D3802",
"b#	c #743C02",
"c#	c #683503",
"d#	c #623204",
"e#	c #783F02",
"f#	c #5D2F04",
"g#	c #743B02",
"h#	c #5C3104",
"i#	c #723B03",
"j#	c #985102",
"k#	c #C66B03",
"l#	c #A95B05",
"m#	c #A85A03",
"n#	c #C86D03",
"o#	c #904D04",
"p#	c #713B04",
"q#	c #C76D03",
"r#	c #7F4203",
"s#	c #D07204",
"t#	c #BB6605",
"u#	c #824403",
"v#	c #CF7104",
"w#	c #B26005",
"x#	c #A45907",
"y#	c #C36B04",
"z#	c #BF6604",
"A#	c #BE6803",
"B#	c #C76F04",
"C#	c #BB6805",
"D#	c #AF6006",
"E#	c #C86F05",
"F#	c #411F02",
"G#	c #3D1D03",
"H#	c #3C1E03",
"I#	c #371B03",
"J#	c #3C1D03",
"K#	c #351903",
"L#	c #492402",
"M#	c #311702",
"N#	c #4B2403",
"O#	c #3A1B02",
"P#	c #D27204",
"Q#	c #D37304",
"R#	c #955004",
"S#	c #C16904",
"T#	c #D47404",
"U#	c #793F03",
"V#	c #CD7004",
"W#	c #7A3F03",
"X#	c #D67505",
"Y#	c #CF7105",
"Z#	c #743C03",
"`#	c #D67606",
" $	c #B86405",
".$	c #AC5D05",
"+$	c #A95B04",
"@$	c #B76305",
"#$	c #914D01",
"$$	c #BC6603",
"%$	c #572C04",
"&$	c #B66404",
"*$	c #CD7105",
"=$	c #BE6906",
"-$	c #CD7006",
";$	c #683804",
">$	c #693804",
",$	c #492604",
"'$	c #623303",
")$	c #3D1F02",
"!$	c #6E3A04",
"~$	c #633504",
"{$	c #432203",
"]$	c #6E3B04",
"^$	c #5A3004",
"/$	c #582D02",
"($	c #683805",
"_$	c #522B04",
":$	c #592D04",
"<$	c #8C4A03",
"[$	c #C66C06",
"}$	c #C66C05",
"|$	c #9D5504",
"1$	c #995204",
"2$	c #884904",
"3$	c #743B03",
"4$	c #B96505",
"5$	c #BF6805",
"6$	c #7A4104",
"7$	c #C46B05",
"8$	c #B66204",
"9$	c #7B4004",
"0$	c #C56C06",
"a$	c #AC5D04",
"b$	c #BB6503",
"c$	c #C06803",
"d$	c #7F4002",
"e$	c #975306",
"f$	c #713D04",
"g$	c #985305",
"h$	c #603304",
"i$	c #884803",
"j$	c #492503",
"k$	c #5C2F03",
"l$	c #945005",
"m$	c #935006",
"n$	c #784105",
"o$	c #AD5D04",
"p$	c #9A5303",
"q$	c #AD5D05",
"r$	c #A85A04",
"s$	c #AD5E05",
"t$	c #A75B03",
"u$	c #5F3103",
"v$	c #995103",
"w$	c #7B4103",
"x$	c #8B4A04",
"y$	c #874804",
"z$	c #B16104",
"A$	c #CA6E05",
"B$	c #C16B06",
"C$	c #A15806",
"D$	c #C86D05",
"E$	c #965204",
"F$	c #6C3A05",
"G$	c #934F04",
"H$	c #9A5505",
"I$	c #522A04",
"J$	c #9F5604",
"K$	c #925005",
"L$	c #5A2F04",
"M$	c #A35905",
"N$	c #945205",
"O$	c #814705",
"P$	c #9C5605",
"Q$	c #7D4405",
"  . . . . . + . @ # . $ $ . . . % & * . $ . . $ . = - . . . $ . * ; > $ . . . . * , ' ) . * . $ $ ! ",
"~ { ] ^ ^ / ( ( _ : < [ ( } [ | 1 2 } ^ ^ ^ ^ ^ < 3 4 ( ^ ^ ( ^ 5 = 6 [ ( ^ [ ^ ( 7 8 9 ^ ^ [ ^ ( 0 ",
"a ( b b b b b b c d e b b b b f g h b b b b b b i 3 j b b b b b k l m b b b b b b n 8 o b b b b b p ",
"q r s s s s s s t u v s s s s w x y s s s s s z v A B s z s s s C D E s s s s s s F G H z s s s s I ",
"J K K K L M K K N O K K K P Q K R R K K S T U K K 8 N K K K V K K W K K K K X N K K W K K K Y Z K S ",
"/ `  ...t +. . . . . . .@.#.$./  .%. . .&.*.=. . . . . . .-.;.>. .%. . .%.,.'.). . . . .!. .~.{.]. .",
"b b b f 1 h b b b b b b i 3 j b b b b b k ^./.b b b b b b (._.:.b b b b b p <.[.b b b b b b c }.|.b ",
"1.2.1.3.4.5.1.1.2.1.2.6.7.8.9.1.1.1.1.1.0.^.a.1.1.1.2.6.1.b._.c.1.1.1.1.2.d.e.f.1.1.2.6.1.1.g.h.i.2.",
"j.k.k.k.= k.k.k.l.m.k.k.k.n.  k.o.p.k.k.k.' q.k.k.r.s.k.t.k.u.k.k.^.v.k.k.k.= k.k.k.w.k.k.k.x.y.t.k.",
"z.A.B.B.B.B.B.B.C.D.E.B.B.B.B./.F.G.B.H.B.B.H.B.I.J.9 B.B.B.H.B.K.U L.B.B.B.B.B.B.M.N.O.B.B.B.B.B.P.",
"<.Q.b b b b b b c }.e b b b b f g 2 b b b b b b |.8.j b b b b b R.= S.b b b b b b w T.o b b b b b p ",
"U.V.i i i i i i W.: X.Y.i Z.i `.1  +Z.i i Z.Z.Z..+3 ++i Z.i i i @+= I.i i Z.i i Y.#+T.4 i i Y.i i $+",
"%+&+&+&+*+&+*+&+=+-+&+&+&+*+*+&+;+>+*+*+*+*+&+*+*+,+'+*+&+*+*+*+&+)+!+*+*+*+*+&+&+~+{+&+*+&+&+*+&+~+",
"]+]+]+^+/+(+]+]+]+]+]+]+_+:+<+]+[+[+[+}+|+1+2+[+[+]+]+[+}+O.% 3+[+[+[+[+]+4+5+6+]+]+]+]+]+]+7+8+9+]+",
"b b b 0+1 a+b b b b b b |.3 j b b b b b k ^.b+b b b b b b @+;.:.b b b b b p c+( b b b b b b c }.e b ",
"f f f d+e+h f f f f f f f+3 .+0+f f f f g+^.E.f f f f f f h+;.i+f f f f f j+c+| f f f f f f k+d l+f ",
"m+m+n+o+p+q+m+m+m+m+m+n+m+&+r+m+n+o+m+m+s+t+u+m+m+m+m+n+o+v+w+x+o+n+m+n+y+z+A+m+m+m+m+n+o+m+B+C+m+m+",
"D+m m m m m m m E+F+m m m m m m G+H+m m m m m m m I+J+m m m m m K+L+M+m m m m m m N+O+S.m m m m m P+",
"<.( b b b b b b c d e b b b b f Q+a+b b b b b b i 8.j b b b b b k l m b b b b b b n 8 o b b b b b R+",
"a ( b b b b b b k+S+e b b b b f e+/ b b b b b b i 8.j b b b b b k T+U+b b b b b b n 8 V+b b b b b R+",
"W+X+Y+Y+Y+Z+Z+Z+`+ @.@Z+Z+Z+Z++@@@#@Z+Z+Z+Z+Y+Z+$@%@&@Y+Z+Z+Y+Y+*@=@-@Z+Z+Z+Z+Z+Z+;@>@Y+Z+Z+Z+Z+Z+,@",
"'@'@'@'@)@!@'@'@~@'@'@'@'@{@]@'@^@~@'@~@/@(@_@'@'@'@'@'@'@:@<@_@~@[@'@'@'@}@Q '@'@'@~@'@~@'@|@Q+~@[@",
"e e e 1@1 h 2@e e e e e ..3 ++3@e e e e @+^.4@e e 2@e 3@e 5@6@7@3@d+8@|.e C a 9@e e 2@e e 2@0@}.(+d+",
"b b b f 1 ` b b b b b b i 3 j b b b b b k ^./.b b b b b b (.;.:.b b b b b p <.( b b b b b b c d e b ",
"a@a@a@b@c@d@a@e@a@a@a@a@f@g@h@a@a@a@a@a@i@=@j@a@a@a@e@a@a@k@l@m@a@a@e@a@e@;@K n@a@e@a@a@a@a@o@p@q@a@",
"r@s@t@s@s@t@u@t@v@w@u@t@t@u@s@s@_.O+u@t@u@t@s@u@t@x@y@u@t@z@s@t@u@A@|@s@t@s@s@u@t@q B@C@u@t@t@t@t@D@",
"~ E@....(+......F@G@H@(+....(+I@J@h (+(+(+....(+K@L@$.....(+....M@N@O.(+(+++(+....P.T.O@(+..(+..(+P@",
"Q@( b b b b b b c }.e b b b b f e+K+b b b b b b i 3 j b b b b b k = R@b b b b b b n 8 o b b b b b R+",
"S@T@U@V@V@V@V@U@W@X@Y@V@U@U@V@P.s+Z@U@V@V@V@V@U@@+8.(.V@V@V@V@U@0.l `@V@U@V@V@V@U@ #8 @+U@V@V@V@V@.#",
"+#6@6@@###$#@#@#P +#6@6@6@%#&#6@*#P @#6@6@=#{@6@6@+#(@6@@#6@-#@#@#+#@#6@6@6@;#(@6@6@+#@#@#>#,#=@6@6@",
"'#H.'#9 t )#'#'#'#'#'#'#O@#.I@'#'#'#'#'#a.*.!#H.'#'#'#~#'#9@_.{#'#'#'#'#H.H '.]#'#H.'#'#'#'#^#{.7@'#",
"b b b f e+a+b b b b b b i 8.j /#b b b b k ^.(#b b b b b b _#;.:#b b b b b p a ( b b b b b b c d e b ",
"<#<#<#U@[#H+<#<#<#<#<#<#i.}#|#1#<#<#<#<#0.<@2#<#<#<#<#<#<#3#;.c.<#<#<#<#<#F 4#f.<#1#<#<#5#1#6#7#8#<#",
"9#= = 0#a#b#W+0#c#d#W+= 0#a#e#W+T D = = = {@v@= = 9#p.= = = = W+W+f#q+0#W+0#g#W+0#W+h#l W+= ; i#W+W+",
"j#A.B.k#k#B.B.B.l#m#I.B.k#B.k#n#o#G.B.k#k#B.k#k#I.p#q#k#B.k#k#B.4 r#s#k#B.B.B.B.k#t#u#v#B.k#B.B.B.w#",
"a 4+b b b b b b c d e b b b b f e+a+b b b b b b i 3 j b b b b b k l m b b b b b b n O o b b b b b p ",
"a { ] ] ] ] ] ] x#d 9 ] ] ] ] y#g z#] ] A#] ] ] B#3 4 Q.] ] ] ] C#= 6 ] ] ] ] ] ] D#8 E#] ] ] ] ] 0 ",
"F#)+G#)+)+H#)+H#I#J#H#)+)+)+)+H#K#L#G#H#H#G#)+)+G#M#N#H#)+)+)+H#)+O#&+)+H#)+H#)+H#)+F#)+)+H#)+G#)+)+",
"6+6+P#Q#R#S#6+P#P#6+6+P#T#U#I.6+P#6+P#P#V#W#X#6+6+6+6+P#6+Y#Z#`#6+6+6+6+6+ $) X#6+6+6+6+P#6+.$+$3+6+",
"b b b f 1 ` b b b b b b i 3 j b b b b b k ^.(#b b b b b b @$@#:.b b b b b p #$( b b b b b b c d e b ",
"|.|.|.$$1 h |.|.|.|.|.|...%$++e |.|.|.|.&$^.*$|.|.|.|.|.|.=$;.-$|.|.|.|.|.c a 9@|.|.|.|.|.|.W.d (+|.",
";$;$;$>$,$'$;$;$;$;$;$;$;$)$!$>$;$;$;$;$~${$]$;$;$;$;$;$;$~$L#@@;$;$;$;$>$^$/$($;$;$>$>$;$;$_$:$>$;$",
"<$[$}$}$}$}$}$}$|$1$}$}$}$}$}$}$2$7+}$}$[$}$[$}$}$3$4$}$}$}$}$}$5$6$7$}$}$}$}$}$}$8$9$0$}$[$}$}$}$a$",
"<.( b b b b b b c d |.b b b b 0+e+/ b b b b b b i 8.j b b b b b k l m b b b b b b n T.b$b b b b b p ",
"U.Q.b b b b b b k+}.e b b b b 0+1 c$b b b b b b i 3 j /#b b b b k l $.b b b b b b n d$b$b b b b b p ",
"T+e$e$e$e$e$e$e$f$Z#g$e$e$e$e$e$h$i$e$e$e$e$e$e$e$j$o#e$e$e$e$e$I k$l$e$e$e$e$e$e$n+>@m$e$e$e$e$e$n$",
"o$B o$B  @p$q$o$B o$o$o$o$_.]@o$B o$o$o$r$>@1#o$o$s$q$B o$t$u$o$o$B o$o$o$v$w$B B o$o$o$q$o$x$y$B o$",
"f f f d+e+h f f f f f f f+3 .+f f f f f z$^.<+f f f f f f h+;.A$f f f f f j+c+B$f f f f f f C$}.1@f ",
"b b b f e+a+b b b b b b i 3 j b b b b b k ^./.b b b b b b (.;.D$b b b b b p a ( b b b b b b c d |.b ",
"E$E$E$g$F$G$E$E$E$E$E$E$H$I$J$E$E$E$E$E$K$L$M$E$E$E$E$E$E$N$'$p E$E$E$E$E$O$O P$E$E$E$E$E$E$Q$U H$E$"};
